<svg xmlns="http://www.w3.org/2000/svg" xmlns:xlink="http://www.w3.org/1999/xlink" width="100" height="100" viewBox="0 0 100 100" enable-background="new 0 0 100 100"><g><path fill="#C2E7FA" d="M50.9 0l-44.1 25.4 44.1 25.5 44-25.4v-.1z"/><path fill="#EFEFEF" d="M53.9 55.2v44.8l41-23.7v-44.7zM47.8 55.2l-41-23.6v44.7l41 23.7z"/></g><g><g><defs><path id="a" d="M50.9 0l-44.1 25.4 44.1 25.5 44-25.4v-.1z"/></defs><clipPath id="b"><use xlink:href="#a" overflow="visible"/></clipPath><linearGradient id="c" gradientUnits="userSpaceOnUse" x1="50" y1="100" x2="50"><stop offset="0" stop-color="#666"/><stop offset="1" stop-color="#333"/></linearGradient><path clip-path="url(#b)" fill="url(#c)" d="M0 0h100v100h-100z"/></g><g><defs><path id="d" d="M53.9 55.2v44.8l41-23.7v-44.7z"/></defs><clipPath id="e"><use xlink:href="#d" overflow="visible"/></clipPath><linearGradient id="f" gradientUnits="userSpaceOnUse" x1="50" y1="100" x2="50"><stop offset="0" stop-color="#666"/><stop offset="1" stop-color="#333"/></linearGradient><path clip-path="url(#e)" fill="url(#f)" d="M0 0h100v100h-100z"/></g><g><defs><path id="g" d="M47.8 55.2l-41-23.6v44.7l41 23.7z"/></defs><clipPath id="h"><use xlink:href="#g" overflow="visible"/></clipPath><linearGradient id="i" gradientUnits="userSpaceOnUse" x1="50" y1="100" x2="50"><stop offset="0" stop-color="#666"/><stop offset="1" stop-color="#333"/></linearGradient><path clip-path="url(#h)" fill="url(#i)" d="M0 0h100v100h-100z"/></g></g><g><g><defs><path id="j" d="M50.9 0l-44.1 25.4 44.1 25.5 44-25.4v-.1z"/></defs><clipPath id="k"><use xlink:href="#j" overflow="visible"/></clipPath><linearGradient id="l" gradientUnits="userSpaceOnUse" x1="50" y1="100" x2="50"><stop offset="0" stop-color="#528EC9"/><stop offset="1" stop-color="#6FA0D1"/></linearGradient><path clip-path="url(#k)" fill="url(#l)" d="M0 0h100v100h-100z"/></g><g><defs><path id="m" d="M53.9 55.2v44.8l41-23.7v-44.7z"/></defs><clipPath id="n"><use xlink:href="#m" overflow="visible"/></clipPath><linearGradient id="o" gradientUnits="userSpaceOnUse" x1="50" y1="100" x2="50"><stop offset="0" stop-color="#528EC9"/><stop offset="1" stop-color="#6FA0D1"/></linearGradient><path clip-path="url(#n)" fill="url(#o)" d="M0 0h100v100h-100z"/></g><g><defs><path id="p" d="M47.8 55.2l-41-23.6v44.7l41 23.7z"/></defs><clipPath id="q"><use xlink:href="#p" overflow="visible"/></clipPath><linearGradient id="r" gradientUnits="userSpaceOnUse" x1="50" y1="100" x2="50"><stop offset="0" stop-color="#528EC9"/><stop offset="1" stop-color="#6FA0D1"/></linearGradient><path clip-path="url(#q)" fill="url(#r)" d="M0 0h100v100h-100z"/></g></g></svg>
