<?xml version="1.0" encoding="utf-8"?>
<!-- Generator: Adobe Illustrator 16.0.0, SVG Export Plug-In . SVG Version: 6.00 Build 0)  -->
<!DOCTYPE svg PUBLIC "-//W3C//DTD SVG 1.1//EN" "http://www.w3.org/Graphics/SVG/1.1/DTD/svg11.dtd">
<svg version="1.1" xmlns="http://www.w3.org/2000/svg" xmlns:xlink="http://www.w3.org/1999/xlink" x="0px" y="0px" width="100px"
	 height="100px" viewBox="0 0 100 100" enable-background="new 0 0 100 100" xml:space="preserve">
<g id="Plain" display="none">
	<polygon display="inline" fill="#C2E7FA" points="50.877,0.001 6.816,25.439 50.877,50.876 94.942,25.451 94.942,25.44 	"/>
	<polygon display="inline" fill="#EFEFEF" points="53.932,55.237 53.932,99.99 94.942,76.328 94.942,31.574 	"/>
	<polygon display="inline" fill="#EFEFEF" points="47.819,55.234 6.815,31.561 6.815,76.315 47.819,99.987 	"/>
</g>
<g id="Grey">
	<g id="Mask_2_">
		<defs>
			<polygon id="Icon_Top" points="50.877,0.001 6.816,25.439 50.877,50.876 94.942,25.451 94.942,25.44 			"/>
		</defs>
		<clipPath id="Icon_Top_1_">
			<use xlink:href="#Icon_Top"  overflow="visible"/>
		</clipPath>
		<linearGradient id="Background_3_" gradientUnits="userSpaceOnUse" x1="50.0005" y1="100" x2="50.0005" y2="4.882812e-04">
			<stop  offset="0" style="stop-color:#666666"/>
			<stop  offset="1" style="stop-color:#333333"/>
		</linearGradient>
		<rect id="Background_2_" clip-path="url(#Icon_Top_1_)" fill="url(#Background_3_)" width="100" height="100"/>
	</g>
	<g id="Mask_1_">
		<defs>
			<polygon id="Icon_Right_1_" points="53.932,55.237 53.932,99.99 94.942,76.328 94.942,31.574 			"/>
		</defs>
		<clipPath id="Icon_Right_2_">
			<use xlink:href="#Icon_Right_1_"  overflow="visible"/>
		</clipPath>
		<linearGradient id="Background_4_" gradientUnits="userSpaceOnUse" x1="50.0005" y1="100" x2="50.0005" y2="4.882812e-04">
			<stop  offset="0" style="stop-color:#666666"/>
			<stop  offset="1" style="stop-color:#333333"/>
		</linearGradient>
		<rect id="Background" clip-path="url(#Icon_Right_2_)" fill="url(#Background_4_)" width="100" height="100"/>
	</g>
	<g id="Mask">
		<defs>
			<polygon id="Icon_Left" points="47.819,55.234 6.815,31.561 6.815,76.315 47.819,99.987 			"/>
		</defs>
		<clipPath id="Icon_Left_1_">
			<use xlink:href="#Icon_Left"  overflow="visible"/>
		</clipPath>
		<linearGradient id="Background_5_" gradientUnits="userSpaceOnUse" x1="50.0005" y1="100" x2="50.0005" y2="4.882812e-04">
			<stop  offset="0" style="stop-color:#666666"/>
			<stop  offset="1" style="stop-color:#333333"/>
		</linearGradient>
		<rect id="Background_1_" clip-path="url(#Icon_Left_1_)" fill="url(#Background_5_)" width="100" height="100"/>
	</g>
</g>
</svg>
